<svg height="512pt" viewBox="-11 0 511 512" width="512pt" xmlns="http://www.w3.org/2000/svg"><path d="m360.617188 65.851562 13-17c6.710937-8.773437 19.261718-10.449218 28.035156-3.738281 8.773437 6.710938 10.449218 19.261719 3.738281 28.035157l-13 17c-3.9375 5.148437-9.882813 7.855468-15.898437 7.855468-4.238282 0-8.511719-1.34375-12.136719-4.117187-8.773438-6.707031-10.445313-19.261719-3.738281-28.035157zm116.496093 250.269532-20-7c-10.425781-3.648438-21.835937 1.847656-25.484375 12.273437-3.648437 10.425781 1.84375 21.835938 12.269532 25.484375l20 7c2.1875.765625 4.414062 1.128906 6.605468 1.128906 8.261719 0 15.996094-5.160156 18.878906-13.398437 3.648438-10.425781-1.84375-21.839844-12.269531-25.488281zm-376.496093-225.972656c3.9375 5.148437 9.886718 7.851562 15.902343 7.851562 4.238281 0 8.507813-1.339844 12.132813-4.113281 8.773437-6.707031 10.449218-19.261719 3.738281-28.035157l-13-17c-6.707031-8.773437-19.261719-10.445312-28.035156-3.738281-8.773438 6.710938-10.445313 19.261719-3.738281 28.035157zm-66.71875 213.972656-20 7c-10.425782 3.648437-15.917969 15.0625-12.269532 25.484375 2.882813 8.242187 10.613282 13.398437 18.875 13.398437 2.191406 0 4.421875-.363281 6.609375-1.128906l20-7c10.425781-3.648438 15.917969-15.058594 12.269531-25.484375-3.648437-10.421875-15.054687-15.917969-25.484374-12.269531zm211.605468 146.878906c-11.042968 0-20 8.953125-20 20v21c0 11.046875 8.957032 20 20 20 11.046875 0 20-8.953125 20-20v-21c0-11.046875-8.953125-20-20-20zm168.15625-50.222656-21.195312-63.140625c-3.515625-10.472657-14.859375-16.113281-25.324219-12.597657-10.46875 3.515626-16.109375 14.851563-12.597656 25.324219l21.152343 63.019531c2.757813 8.648438-3.074218 13.703126-4.933593 15.046876-2.347657 1.703124-8.574219 5.105468-15.660157-.058594l-78.523437-56.902344c-18.773437-13.6875-44.003906-13.6875-62.851563.054688l-78.5 57.769531c-7.039062 5.132812-13.261718 1.730469-15.609374.027343-1.863282-1.351562-7.722657-6.429687-4.898438-15.160156l30.003906-93.195312c7.148438-22.078125-.632812-46.089844-19.332031-59.722656l-78.289063-57.308594c-7.089843-5.167969-5.78125-12.078125-4.890624-14.8125.890624-2.742188 3.921874-9.121094 12.714843-9.121094h96.804688c23.109375 0 43.503906-15.039062 50.765625-37.457031l30-93.253907c2.714844-8.382812 9.78125-9.289062 12.695312-9.289062 2.910156 0 9.980469.90625 12.683594 9.253906l30.023438 93.324219c7.246093 22.382813 27.644531 37.421875 50.75 37.421875h97.4375c8.792968 0 11.824218 6.378906 12.714843 9.125.890625 2.730469 2.199219 9.644531-4.914062 14.828125l-53.1875 38.902344c-8.914063 6.523437-10.855469 19.035156-4.335938 27.953125 6.519531 8.914062 19.035157 10.851562 27.949219 4.332031l53.160156-38.882813c19.023438-13.871093 26.625-37.234374 19.359375-59.527343-7.269531-22.3125-27.1875-36.730469-50.746093-36.730469h-97.4375c-5.617188 0-10.839844-4.007812-12.683594-9.707031l-30.023438-93.324219c-7.273437-22.457031-27.191406-36.96875-50.75-36.96875s-43.480468 14.511719-50.765625 37.003906l-30 93.253906c-1.855469 5.734376-7.078125 9.742188-12.695312 9.742188h-96.804688c-23.558593 0-43.480469 14.417969-50.75 36.730469-7.261719 22.292969.335938 45.660156 19.328125 59.503906l78.289063 57.308594c4.726562 3.441406 6.683593 9.511719 4.863281 15.132812l-30.003906 93.195313c-7.28125 22.496094.371094 45.984375 19.496094 59.84375 9.492187 6.875 20.359374 10.316406 31.234374 10.316406 10.949219-.003906 21.910157-3.488281 31.480469-10.46875l78.5-57.769531c4.679688-3.414063 10.96875-3.414063 15.695313.03125l78.527344 56.902343c19.007812 13.855469 43.59375 13.894532 62.644531.097657 19.125-13.855469 26.777343-37.347657 19.492187-59.839844-.019531-.070313-.039062-.136719-.0625-.207031zm0 0"/></svg>